HIERARCHY
ROOT Hips
{
    OFFSET   0.000000   0.000000   0.000000
    CHANNELS 6 Xposition Yposition Zposition Zrotation Xrotation Yrotation
    JOINT Chest
    {
        OFFSET   0.000000   8.007230   0.000000
        CHANNELS 3 Zrotation Xrotation Yrotation
        JOINT Chest2
        {
            OFFSET   0.000000  22.077100   0.000000
            CHANNELS 3 Zrotation Xrotation Yrotation
            JOINT Neck
            {
                OFFSET   0.000000  23.254800  -0.000021
                CHANNELS 3 Zrotation Xrotation Yrotation
                JOINT Head
                {
                    OFFSET   0.000000  14.370000   1.956610
                    CHANNELS 3 Zrotation Xrotation Yrotation
                    End Site
                    {
                        OFFSET   0.000000  19.566000   0.000000
                    }
                }
            }
            JOINT LeftCollar
            {
                OFFSET   3.911900  19.017000  -0.467063
                CHANNELS 3 Zrotation Xrotation Yrotation
                JOINT LeftShoulder
                {
                    OFFSET  10.383700   0.000000   0.000000
                    CHANNELS 3 Zrotation Xrotation Yrotation
                    JOINT LeftElbow
                    {
                        OFFSET  26.662100   0.001529   0.000325
                        CHANNELS 3 Zrotation Xrotation Yrotation
                        JOINT LeftWrist
                        {
                            OFFSET  28.869000  -0.000011  -0.000096
                            CHANNELS 3 Zrotation Xrotation Yrotation
                            JOINT LeftFinger0
                            {
                                OFFSET   2.044650  -2.323460   3.252850
                                CHANNELS 3 Zrotation Xrotation Yrotation
                                JOINT LeftFinger01
                                {
                                    OFFSET   3.088130   0.000000   0.000000
                                    CHANNELS 3 Zrotation Xrotation Yrotation
                                    JOINT LeftFinger02
                                    {
                                        OFFSET   2.639460   0.000000   0.000000
                                        CHANNELS 3 Zrotation Xrotation Yrotation
                                        End Site
                                        {
                                            OFFSET   2.582190   0.000000   0.000000
                                        }
                                    }
                                }
                            }
                            JOINT LeftFinger1
                            {
                                OFFSET   8.364480   0.000000   3.252850
                                CHANNELS 3 Zrotation Xrotation Yrotation
                                JOINT LeftFinger11
                                {
                                    OFFSET   4.646930   0.000000   0.000000
                                    CHANNELS 3 Zrotation Xrotation Yrotation
                                    JOINT LeftFinger12
                                    {
                                        OFFSET   2.323460   0.000000   0.000000
                                        CHANNELS 3 Zrotation Xrotation Yrotation
                                        End Site
                                        {
                                            OFFSET   2.273050   0.000000   0.000000
                                        }
                                    }
                                }
                            }
                            JOINT LeftFinger2
                            {
                                OFFSET   8.364480   0.000016   1.078090
                                CHANNELS 3 Zrotation Xrotation Yrotation
                                JOINT LeftFinger21
                                {
                                    OFFSET   5.111620   0.000000   0.000000
                                    CHANNELS 3 Zrotation Xrotation Yrotation
                                    JOINT LeftFinger22
                                    {
                                        OFFSET   2.788160   0.000017   0.000000
                                        CHANNELS 3 Zrotation Xrotation Yrotation
                                        End Site
                                        {
                                            OFFSET   2.727660   0.000000   0.000000
                                        }
                                    }
                                }
                            }
                            JOINT LeftFinger3
                            {
                                OFFSET   7.899780   0.000015  -1.078090
                                CHANNELS 3 Zrotation Xrotation Yrotation
                                JOINT LeftFinger31
                                {
                                    OFFSET   4.646920   0.000000   0.000000
                                    CHANNELS 3 Zrotation Xrotation Yrotation
                                    JOINT LeftFinger32
                                    {
                                        OFFSET   2.323470   0.000000   0.000000
                                        CHANNELS 3 Zrotation Xrotation Yrotation
                                        End Site
                                        {
                                            OFFSET   2.273050   0.000000   0.000000
                                        }
                                    }
                                }
                            }
                            JOINT LeftFinger4
                            {
                                OFFSET   7.435090   0.000000  -3.252850
                                CHANNELS 3 Zrotation Xrotation Yrotation
                                JOINT LeftFinger41
                                {
                                    OFFSET   3.717550   0.000000   0.000000
                                    CHANNELS 3 Zrotation Xrotation Yrotation
                                    JOINT LeftFinger42
                                    {
                                        OFFSET   1.858760   0.000000   0.000000
                                        CHANNELS 3 Zrotation Xrotation Yrotation
                                        End Site
                                        {
                                            OFFSET   1.818440   0.000000   0.000000
                                        }
                                    }
                                }
                            }
                        }
                    }
                }
            }
            JOINT RightCollar
            {
                OFFSET  -3.911900  19.017000  -0.467062
                CHANNELS 3 Zrotation Xrotation Yrotation
                JOINT RightShoulder
                {
                    OFFSET -10.383700   0.000015   0.000000
                    CHANNELS 3 Zrotation Xrotation Yrotation
                    JOINT RightElbow
                    {
                        OFFSET -26.662100   0.001341   0.000385
                        CHANNELS 3 Zrotation Xrotation Yrotation
                        JOINT RightWrist
                        {
                            OFFSET -28.869000   0.000025  -0.000080
                            CHANNELS 3 Zrotation Xrotation Yrotation
                            JOINT RightFinger0
                            {
                                OFFSET  -2.044650  -2.323490   3.252850
                                CHANNELS 3 Zrotation Xrotation Yrotation
                                JOINT RightFinger01
                                {
                                    OFFSET  -3.088130   0.000000   0.000000
                                    CHANNELS 3 Zrotation Xrotation Yrotation
                                    JOINT RightFinger02
                                    {
                                        OFFSET  -2.639460   0.000000   0.000000
                                        CHANNELS 3 Zrotation Xrotation Yrotation
                                        End Site
                                        {
                                            OFFSET  -2.582190   0.000000   0.000000
                                        }
                                    }
                                }
                            }
                            JOINT RightFinger1
                            {
                                OFFSET  -8.364480   0.000000   3.252850
                                CHANNELS 3 Zrotation Xrotation Yrotation
                                JOINT RightFinger11
                                {
                                    OFFSET  -4.646930   0.000000   0.000000
                                    CHANNELS 3 Zrotation Xrotation Yrotation
                                    JOINT RightFinger12
                                    {
                                        OFFSET  -2.323470   0.000000   0.000000
                                        CHANNELS 3 Zrotation Xrotation Yrotation
                                        End Site
                                        {
                                            OFFSET  -2.273050   0.000000   0.000000
                                        }
                                    }
                                }
                            }
                            JOINT RightFinger2
                            {
                                OFFSET  -8.364480   0.000000   1.078090
                                CHANNELS 3 Zrotation Xrotation Yrotation
                                JOINT RightFinger21
                                {
                                    OFFSET  -5.111610   0.000000   0.000000
                                    CHANNELS 3 Zrotation Xrotation Yrotation
                                    JOINT RightFinger22
                                    {
                                        OFFSET  -2.788160   0.000000   0.000000
                                        CHANNELS 3 Zrotation Xrotation Yrotation
                                        End Site
                                        {
                                            OFFSET  -2.727660   0.000000   0.000000
                                        }
                                    }
                                }
                            }
                            JOINT RightFinger3
                            {
                                OFFSET  -7.899780   0.000000  -1.078090
                                CHANNELS 3 Zrotation Xrotation Yrotation
                                JOINT RightFinger31
                                {
                                    OFFSET  -4.646920   0.000000   0.000000
                                    CHANNELS 3 Zrotation Xrotation Yrotation
                                    JOINT RightFinger32
                                    {
                                        OFFSET  -2.323470   0.000000   0.000000
                                        CHANNELS 3 Zrotation Xrotation Yrotation
                                        End Site
                                        {
                                            OFFSET  -2.273050   0.000000   0.000000
                                        }
                                    }
                                }
                            }
                            JOINT RightFinger4
                            {
                                OFFSET  -7.435090   0.000000  -3.252850
                                CHANNELS 3 Zrotation Xrotation Yrotation
                                JOINT RightFinger41
                                {
                                    OFFSET  -3.717550   0.000000   0.000000
                                    CHANNELS 3 Zrotation Xrotation Yrotation
                                    JOINT RightFinger42
                                    {
                                        OFFSET  -1.858770   0.000000   0.000000
                                        CHANNELS 3 Zrotation Xrotation Yrotation
                                        End Site
                                        {
                                            OFFSET  -1.818440   0.000000   0.000000
                                        }
                                    }
                                }
                            }
                        }
                    }
                }
            }
        }
    }
    JOINT LeftHip
    {
        OFFSET   9.783010   0.000000   0.000000
        CHANNELS 3 Zrotation Xrotation Yrotation
        JOINT LeftKnee
        {
            OFFSET   0.000070 -41.789100   0.000028
            CHANNELS 3 Zrotation Xrotation Yrotation
            JOINT LeftAnkle
            {
                OFFSET   0.000087 -41.133200  -0.000100
                CHANNELS 3 Zrotation Xrotation Yrotation
                JOINT LeftToe
                {
                    OFFSET   0.000000  -6.358960  14.674500
                    CHANNELS 3 Zrotation Xrotation Yrotation
                    End Site
                    {
                        OFFSET   0.000000   0.000000   3.913200
                    }
                }
            }
        }
    }
    JOINT RightHip
    {
        OFFSET  -9.783020   0.000000   0.000000
        CHANNELS 3 Zrotation Xrotation Yrotation
        JOINT RightKnee
        {
            OFFSET   0.000044 -41.789100  -0.000870
            CHANNELS 3 Zrotation Xrotation Yrotation
            JOINT RightAnkle
            {
                OFFSET  -0.000090 -41.133200  -0.000245
                CHANNELS 3 Zrotation Xrotation Yrotation
                JOINT RightToe
                {
                    OFFSET   0.000000  -6.358960  14.674500
                    CHANNELS 3 Zrotation Xrotation Yrotation
                    End Site
                    {
                        OFFSET   0.000000   0.000000   3.913200
                    }
                }
            }
        }
    }
}
MOTION
Frames: 5
Frame Time:   0.016667
  4.597230  88.798900  -3.456000  -0.668129 -19.015700  -3.963920   1.041640  11.479000  -1.717910   2.520670  22.918200  -3.770670   0.694148  -8.436200   0.100892   1.211330 -17.099300   8.085780  -7.272300  -4.635660   5.747660 -66.178000  25.293800 -21.996300  13.828600  -0.591000 -103.997000  36.685400  -2.806680 -10.373900  60.197500  39.770000 -66.317400 -12.005300  -0.007056  -0.002025  -1.002650  -0.013856  -0.000996 -28.649700  -0.912051   1.646020 -23.455500  -0.004528   0.005272 -16.418900  -0.000728   0.008877 -36.462200  -1.158900   1.517480 -53.816700  -0.011111   0.005450 -36.032400  -0.023904   0.002140 -14.811100  -0.504993   1.876220 -14.842800   0.025051   0.119577  -9.885320   0.002602   0.082142 -46.452800  -3.091830   2.929840 -69.795400   0.000549   0.000536 -46.483700   0.000048   0.000503   7.836900  -2.198420  13.760300  64.732100  15.006200   4.851630   1.339890   5.818360  63.838600 -52.444400 -61.435600 -50.663400 -30.389400   8.822480  59.748800  25.380800   0.002137  -0.002692   7.690380   0.006057  -0.000228  38.807500  -3.493790  -4.338440  31.858300  -0.005122  -0.004003  22.288100  -0.005194  -0.001952  33.173900  -3.656920  -5.575160  50.027100  -0.003963  -0.002989  33.318000  -0.003754  -0.000581  41.282300  -4.411980  -5.026200  54.521800   0.005922   0.004757  37.850400  -0.003970   0.000562  16.095300  -7.404500 -24.131200  26.649200  -0.000596  -0.001412  17.748400  -0.000720  -0.000829  -1.146270  20.274800   0.710666  -1.063280   1.931380  11.658900  -0.112844  -4.032320   1.903760  -0.000000   0.000000  -0.000000  -3.205720  11.166300  -4.881570  -4.364640  17.896300  -8.470880   4.249620  -8.691470   0.528813  -0.000000   0.000000   0.000000
  4.510210  88.812900  -3.448560  -0.651467 -18.959400  -3.961190   1.026120  11.424000  -1.722230   2.486840  22.808500  -3.773880   0.674494  -8.441710   0.099020   1.176260 -17.111000   7.949580  -7.265800  -4.513590   5.794040 -65.646300  25.807500 -22.989600  14.056000  -1.508690 -104.147000  35.848900   0.870539 -12.677400  59.656200  40.277600 -65.752300 -12.793400   0.002070   0.000520  -1.396670  -0.013837   0.000126 -28.697800  -0.847303   1.503650 -23.466800  -0.003751   0.003565 -16.426800   0.000000   0.008654 -35.040000  -0.996144   1.401030 -53.036200  -0.009241   0.000428 -35.224900  -0.003477  -0.006044 -11.892300  -0.377192   1.656770 -11.873700  -0.007327  -0.031068  -7.907830   0.001091  -0.021284 -47.135100  -3.244720   3.025250 -70.833500  -0.017968   0.009312 -47.175100  -0.012765  -0.004326   7.923180  -2.151190  13.844300  64.947800  14.493200   4.700260   1.649770   5.963320  64.046500 -53.658400 -62.324300 -52.456700 -30.525200  10.462700  60.900200  25.609100   0.003364  -0.006653   7.804500   0.005827  -0.000143  39.586400  -3.432680  -4.143190  32.489500  -0.003526  -0.001939  22.770300  -0.003814  -0.001504  33.411600  -3.647510  -5.509180  50.380400  -0.001304  -0.002184  33.553300  -0.002998  -0.000319  43.194900  -4.537280  -4.823610  54.466400   0.005959   0.004767  38.270200  -0.002787   0.000671  16.337000  -7.085180 -22.835300  26.648800  -0.000821  -0.001399  17.748100  -0.000860  -0.000666  -1.108090  20.218400   0.704089  -1.045710   1.916810  11.645900  -0.158920  -4.008450   1.903950  -0.000000   0.000000  -0.000000  -3.137850  11.091900  -4.938190  -4.397610  17.896500  -8.422090   4.174590  -8.665060   0.491630   0.000000   0.000000   0.000000
  4.423050  88.829500  -3.442480  -0.647671 -18.921700  -3.971370   1.015660  11.383000  -1.725860   2.463760  22.727000  -3.776890   0.655019  -8.452350   0.096316   1.139940 -17.132800   7.811940  -7.271000  -4.422200   5.875740 -65.060000  26.428100 -23.890200  14.249600  -2.278470 -104.466000  34.935000   3.414860 -13.844800  58.955000  40.476000 -63.816200 -13.456400   0.003300   0.006883  -1.728170  -0.013702   0.001441 -28.283900  -1.237450   2.286960 -23.147000  -0.002880   0.003715 -16.203000   0.000790   0.008278 -34.154400  -1.467620   2.141910 -51.735800  -0.006965  -0.000366 -34.358200  -0.003812  -0.005750 -11.491800  -0.526971   2.532560 -11.489500  -0.006557  -0.012592  -7.651990   0.001099  -0.008788 -46.882900  -3.202240   3.006730 -70.471600  -0.014406   0.008629 -46.934100  -0.009850  -0.003918   8.006340  -2.100330  13.960200  65.057100  14.402100   4.614490   1.743340   5.889690  64.327200 -55.167500 -62.584900 -54.295300 -30.659800  10.997000  61.223200  26.099600   0.004617  -0.012523   8.049780   0.005618  -0.000223  40.200200  -3.381860  -3.993760  32.986500  -0.003267  -0.000400  23.198400  -0.003120  -0.000628  33.569700  -3.640980  -5.465970  50.615200  -0.000437  -0.001273  33.709700  -0.002169  -0.000061  44.691100  -4.636850  -4.680290  54.459600   0.005876   0.004613  38.654200  -0.001744   0.000676  16.509200  -6.863400 -21.980600  26.731700  -0.001152  -0.001203  17.803300  -0.001035  -0.000457  -1.054900  20.169900   0.704269  -1.032490   1.917490  11.609600  -0.207904  -3.987270   1.931360  -0.000000   0.000000  -0.000000  -3.075090  11.026200  -4.973660  -4.409650  17.913500  -8.375480   4.104690  -8.640730   0.442365   0.000000   0.000000  -0.000000
  4.334810  88.847900  -3.438250  -0.647335 -18.906800  -3.982090   1.006950  11.365100  -1.726880   2.445420  22.691500  -3.776910   0.632807  -8.465910   0.092951   1.105480 -17.160500   7.682330  -7.274350  -4.382240   5.958980 -64.475500  27.029600 -24.648000  14.429400  -2.920380 -104.700000  33.855500   4.770340 -14.185300  58.478500  40.458300 -61.567200 -13.983900   0.003687   0.011465  -1.991950  -0.013452   0.002794 -27.631300  -1.816470   3.462270 -22.653400  -0.001688   0.004013 -15.857400   0.001543   0.007785 -33.620100  -2.171650   3.251680 -50.524800  -0.004738  -0.000647 -33.649500  -0.004147  -0.005266 -11.407900  -0.771912   3.836070 -11.434600  -0.004934   0.005884  -7.615440   0.001151   0.003708 -46.587600  -3.159770   2.988220 -70.006600  -0.008702   0.007344 -46.624400  -0.005349  -0.003164   8.082550  -2.050100  14.084900  65.114300  14.389400   4.584170   1.784440   5.787050  64.696000 -57.198300 -62.426200 -56.501900 -30.679500  11.072700  61.270200  26.775400   0.006004  -0.016427   8.387700   0.005437  -0.000369  40.717400  -3.336100  -3.870750  33.405200  -0.003191   0.000556  23.585400  -0.002876   0.000216  33.658000  -3.637040  -5.442280  50.746300   0.000000  -0.000381  33.797000  -0.001382   0.000200  46.107400  -4.734000  -4.553410  54.452700   0.005662   0.004295  38.997300  -0.001275   0.000677  16.646300  -6.700220 -21.319700  26.850500  -0.001404  -0.000844  17.882400  -0.001141  -0.000204  -0.996836  20.146800   0.706959  -1.018340   1.920770  11.567900  -0.259620  -3.970960   1.958580   0.000000   0.000000  -0.000000  -3.015420  10.990800  -4.998690  -4.417690  17.942000  -8.333200   4.039470  -8.627740   0.391999   0.000000   0.000000   0.000000
  4.246620  88.867700  -3.436340  -0.640991 -18.915900  -3.980100   0.997062  11.365400  -1.726450   2.425260  22.692200  -3.774420   0.607199  -8.483200   0.089441   1.064260 -17.196000   7.577140  -7.280050  -4.383480   6.005610 -63.970600  27.496800 -25.171200  14.598800  -3.242050 -104.862000  32.864200   5.097200 -14.189900  58.403900  40.758700 -60.495000 -14.332300   0.004372   0.010618  -2.166180  -0.013152   0.004276 -27.157200  -2.096000   4.078870 -22.277800   0.000182   0.004366 -15.594500   0.002281   0.007199 -33.311200  -2.526350   3.828880 -50.056000  -0.003394  -0.001278 -33.343400  -0.003411  -0.004895 -11.717800  -0.947489   4.490530 -11.758600  -0.002785   0.004862  -7.831240   0.001473   0.002409 -46.519400  -3.322430   3.151000 -69.886300  -0.004374   0.005989 -46.544300  -0.002593  -0.002386   8.152670  -1.999340  14.192800  65.105000  14.575400   4.624200   1.821210   5.659410  65.167400 -60.113200 -62.222100 -59.530700 -30.528300  10.456000  60.805400  27.674900   0.007472  -0.015307   8.837450   0.005290  -0.000550  41.190100  -3.292310  -3.757540  33.788200  -0.003078   0.001719  23.937300  -0.002341   0.001020  33.673800  -3.636280  -5.438080  50.769700   0.000591   0.000468  33.812600  -0.000671   0.000472  47.785500  -4.860580  -4.407650  54.402200   0.005338   0.003913  39.369800  -0.000637   0.000584  16.758300  -6.516220 -20.652100  26.910900  -0.001602  -0.000437  17.922600  -0.001205   0.000077  -0.943096  20.155600   0.721886  -1.001650   1.927640  11.522800  -0.315308  -3.960940   1.958530  -0.000000   0.000000  -0.000000  -2.965350  10.988300  -5.013510  -4.411260  17.970200  -8.302780   3.982150  -8.630640   0.347489  -0.000000   0.000000   0.000000
